<?xml version="1.0" encoding="utf-8"?>
<!-- Generator: Adobe Illustrator 27.5.0, SVG Export Plug-In . SVG Version: 6.00 Build 0)  -->
<svg version="1.1" id="圖層_1" xmlns="http://www.w3.org/2000/svg" xmlns:xlink="http://www.w3.org/1999/xlink" x="0px" y="0px"
	 viewBox="0 0 1000 350" style="enable-background:new 0 0 1000 350;" xml:space="preserve">
<style type="text/css">
	.st0{fill:url(#SVGID_1_);}
	.st1{fill:url(#SVGID_00000057145018002663708620000017269909371119873441_);}
	.st2{fill:url(#SVGID_00000127761181340158705630000013317009347220995233_);}
	.st3{fill:url(#SVGID_00000036966258334462271700000003797112106677470891_);}
	.st4{fill:url(#SVGID_00000137124589476422377550000004369486312375194547_);}
	.st5{fill:url(#SVGID_00000039135658368591292790000001006199456560000919_);}
	.st6{fill:url(#SVGID_00000129927281104721303360000003261984467161698995_);}
	.st7{fill:url(#SVGID_00000166656513381253323920000002543060298410916737_);}
	.st8{fill:url(#SVGID_00000034066197433346847250000017836706991267864741_);}
	.st9{fill:url(#SVGID_00000132808313843776128420000014958977113373325976_);}
	.st10{fill:url(#SVGID_00000119082926767684087830000006729572584797048204_);}
	.st11{fill:url(#SVGID_00000061456289599910363960000001088697929381542320_);}
	.st12{fill:#CCB082;}
</style>
<g>
	<g>
		<g>
			<g>
				
					<linearGradient id="SVGID_1_" gradientUnits="userSpaceOnUse" x1="-42.2177" y1="209.2625" x2="1112.7854" y2="209.2625" gradientTransform="matrix(1 0 0 -1 0 352)">
					<stop  offset="0" style="stop-color:#CC9C34"/>
					<stop  offset="0.16" style="stop-color:#C8912F"/>
					<stop  offset="0.4392" style="stop-color:#E8E093"/>
					<stop  offset="0.54" style="stop-color:#EBE9B5"/>
					<stop  offset="0.69" style="stop-color:#C9AD5E"/>
					<stop  offset="0.85" style="stop-color:#C5A253"/>
					<stop  offset="1" style="stop-color:#D4BD75"/>
				</linearGradient>
				<path class="st0" d="M92.29,211.22c0-3.92-2.37-7.45-5.99-8.94c-1.21-0.5-2.38-1.05-3.52-1.67
					c-5.82-3.16-10.71-7.57-14.67-13.22c-3.96-5.65-6.94-12.34-8.93-20.06c-2-7.72-2.99-16.17-2.99-25.35c0-9.11,1-17.47,2.99-25.05
					c2-7.58,4.97-14.12,8.93-19.61s8.85-9.75,14.67-12.77c1.16-0.61,2.37-1.15,3.61-1.63c3.57-1.39,5.91-4.84,5.91-8.66l0,0
					c-3.02,0.41-5.98,0.96-8.86,1.72c-6.26,1.63-12.08,3.93-17.47,6.89c-5.39,2.96-10.3,6.52-14.72,10.68
					c-4.43,4.16-8.2,8.77-11.33,13.82c-3.13,5.06-5.54,10.51-7.24,16.37c-1.7,5.86-2.55,11.94-2.55,18.26
					c0,9.65,1.88,18.71,5.64,27.2c3.76,8.48,8.91,15.9,15.47,22.26c6.55,6.35,14.27,11.36,23.15,15.02
					C80.08,208.79,86.04,210.38,92.29,211.22L92.29,211.22z"/>
				
					<linearGradient id="SVGID_00000150101216717680988380000009382185476763414953_" gradientUnits="userSpaceOnUse" x1="-42.2177" y1="209.2925" x2="1112.7854" y2="209.2925" gradientTransform="matrix(1 0 0 -1 0 352)">
					<stop  offset="0" style="stop-color:#CC9C34"/>
					<stop  offset="0.16" style="stop-color:#C8912F"/>
					<stop  offset="0.4392" style="stop-color:#E8E093"/>
					<stop  offset="0.54" style="stop-color:#EBE9B5"/>
					<stop  offset="0.69" style="stop-color:#C9AD5E"/>
					<stop  offset="0.85" style="stop-color:#C5A253"/>
					<stop  offset="1" style="stop-color:#D4BD75"/>
				</linearGradient>
				<path style="fill:url(#SVGID_00000150101216717680988380000009382185476763414953_);" d="M176.71,123.72
					c-1.7-5.85-4.13-11.31-7.29-16.37c-3.16-5.06-6.94-9.66-11.33-13.82s-9.3-7.72-14.72-10.68s-11.26-5.26-17.52-6.89
					c-2.86-0.74-5.78-1.3-8.76-1.7v0.1c0,3.82,2.33,7.24,5.88,8.65c1.14,0.46,2.26,0.97,3.34,1.53c5.82,3.03,10.73,7.29,14.72,12.77
					c3.99,5.49,7,12.03,9.03,19.61c2.03,7.59,3.04,15.94,3.04,25.05c0,9.18-1.02,17.63-3.04,25.35c-2.03,7.72-5.04,14.4-9.03,20.06
					c-3.99,5.66-8.9,10.06-14.72,13.22c-1.06,0.57-2.14,1.09-3.25,1.56c-3.6,1.51-5.96,5.02-5.96,8.92v0.08
					c2.98-0.41,5.91-0.98,8.76-1.74c6.26-1.66,12.09-4.02,17.52-7.09c5.42-3.06,10.33-6.72,14.72-10.98s8.17-8.98,11.33-14.17
					s5.59-10.76,7.29-16.72c1.69-5.95,2.54-12.13,2.54-18.51C179.25,135.66,178.4,129.57,176.71,123.72z"/>
			</g>
			
				<linearGradient id="SVGID_00000068679820952627861610000014501893768920267395_" gradientUnits="userSpaceOnUse" x1="-42.2177" y1="209.7625" x2="1112.7854" y2="209.7625" gradientTransform="matrix(1 0 0 -1 0 352)">
				<stop  offset="0" style="stop-color:#CC9C34"/>
				<stop  offset="0.16" style="stop-color:#C8912F"/>
				<stop  offset="0.4392" style="stop-color:#E8E093"/>
				<stop  offset="0.54" style="stop-color:#EBE9B5"/>
				<stop  offset="0.69" style="stop-color:#C9AD5E"/>
				<stop  offset="0.85" style="stop-color:#C5A253"/>
				<stop  offset="1" style="stop-color:#D4BD75"/>
			</linearGradient>
			<path style="fill:url(#SVGID_00000068679820952627861610000014501893768920267395_);" d="M402.53,77.75h40.86
				c6.74,0,13.07,0.81,18.97,2.43s11.04,4,15.42,7.15s7.81,7,10.31,11.58c2.5,4.57,3.74,9.81,3.74,15.71
				c0,5.84-1.22,10.93-3.65,15.27c-2.43,4.35-5.64,7.95-9.63,10.8c-3.99,2.86-8.51,4.98-13.57,6.37c-5.06,1.4-10.21,2.09-15.47,2.09
				c-2.27,0-4.64-0.05-7.1-0.15c-2.46-0.1-4.83-0.24-7.1-0.44c-2.27-0.19-4.38-0.42-6.32-0.68s-3.54-0.52-4.77-0.78v59.63h-12.99
				c-4.81,0-8.71-3.9-8.71-8.71L402.53,77.75L402.53,77.75z M424.22,139.81c2.46,0.84,5.09,1.54,7.88,2.09
				c2.79,0.55,5.64,0.83,8.56,0.83c4.67,0,8.75-0.7,12.26-2.09c3.5-1.39,6.42-3.31,8.75-5.74s4.07-5.29,5.2-8.56s1.7-6.76,1.7-10.46
				c0-4.34-0.75-8.27-2.24-11.77s-3.55-6.5-6.18-9s-5.71-4.43-9.24-5.79c-3.54-1.36-7.31-2.04-11.33-2.04h-15.37L424.22,139.81
				L424.22,139.81z"/>
			
				<linearGradient id="SVGID_00000158746338349889475510000007019633308670782597_" gradientUnits="userSpaceOnUse" x1="-42.2177" y1="209.7575" x2="1112.7854" y2="209.7575" gradientTransform="matrix(1 0 0 -1 0 352)">
				<stop  offset="0" style="stop-color:#CC9C34"/>
				<stop  offset="0.16" style="stop-color:#C8912F"/>
				<stop  offset="0.4392" style="stop-color:#E8E093"/>
				<stop  offset="0.54" style="stop-color:#EBE9B5"/>
				<stop  offset="0.69" style="stop-color:#C9AD5E"/>
				<stop  offset="0.85" style="stop-color:#C5A253"/>
				<stop  offset="1" style="stop-color:#D4BD75"/>
			</linearGradient>
			<path style="fill:url(#SVGID_00000158746338349889475510000007019633308670782597_);" d="M652.08,77.75h11.72
				c5.51,0,9.97,4.46,9.97,9.97v119.02h-12.06c-5.32,0-9.63-4.31-9.63-9.63L652.08,77.75L652.08,77.75z"/>
			
				<linearGradient id="SVGID_00000154424403706484825850000008350531990161629059_" gradientUnits="userSpaceOnUse" x1="-42.2177" y1="209.7575" x2="1112.7854" y2="209.7575" gradientTransform="matrix(1 0 0 -1 0 352)">
				<stop  offset="0" style="stop-color:#CC9C34"/>
				<stop  offset="0.16" style="stop-color:#C8912F"/>
				<stop  offset="0.4392" style="stop-color:#E8E093"/>
				<stop  offset="0.54" style="stop-color:#EBE9B5"/>
				<stop  offset="0.69" style="stop-color:#C9AD5E"/>
				<stop  offset="0.85" style="stop-color:#C5A253"/>
				<stop  offset="1" style="stop-color:#D4BD75"/>
			</linearGradient>
			<path style="fill:url(#SVGID_00000154424403706484825850000008350531990161629059_);" d="M713.77,77.75h13.59
				c5.27,0,10.09,2.96,12.48,7.66l46.31,91.27h1.07l49.22-98.93h7.8c7.73,0,13.99,6.26,13.99,13.99v115h-12.17
				c-5.32,0-9.63-4.31-9.63-9.63V101h-0.68l-51.91,103.73c-0.62,1.23-1.87,2.01-3.25,2.01l0,0c-1.37,0-2.62-0.77-3.24-1.98
				l-52.49-102.89h-1.46v104.86l0,0c-5.32,0-9.63-4.31-9.63-9.63L713.77,77.75L713.77,77.75z"/>
			
				<linearGradient id="SVGID_00000173155198310861293830000014096608354492735139_" gradientUnits="userSpaceOnUse" x1="-42.2177" y1="209.7675" x2="1112.7854" y2="209.7675" gradientTransform="matrix(1 0 0 -1 0 352)">
				<stop  offset="0" style="stop-color:#CC9C34"/>
				<stop  offset="0.16" style="stop-color:#C8912F"/>
				<stop  offset="0.4392" style="stop-color:#E8E093"/>
				<stop  offset="0.54" style="stop-color:#EBE9B5"/>
				<stop  offset="0.69" style="stop-color:#C9AD5E"/>
				<stop  offset="0.85" style="stop-color:#C5A253"/>
				<stop  offset="1" style="stop-color:#D4BD75"/>
			</linearGradient>
			<path style="fill:url(#SVGID_00000173155198310861293830000014096608354492735139_);" d="M579.01,144.19
				c4.67-1.17,8.95-2.77,12.84-4.82c3.89-2.04,7.22-4.47,9.97-7.3c2.76-2.82,4.9-5.98,6.42-9.49c1.52-3.5,2.29-7.26,2.29-11.28
				c0-4.86-0.98-9.35-2.97-13.47c-1.98-4.12-4.91-7.67-8.8-10.65c-3.89-2.98-8.75-5.3-14.59-6.96c-5.84-1.65-12.62-2.48-20.33-2.48
				h-44.75v118.77c0,5.64,4.58,10.22,10.22,10.22h11.47v-58.61v-2v-6.52v-3.26V85.81h19.07c3.95,0,7.6,0.65,10.94,1.94
				c3.34,1.3,6.22,3.1,8.65,5.4c2.43,2.3,4.32,5.08,5.64,8.32c1.33,3.24,1.99,6.81,1.99,10.7c0,4.22-0.84,8.01-2.53,11.38
				s-4.03,6.24-7.05,8.61c-3.02,2.37-6.58,4.2-10.7,5.5c-1.98,0.63-4.06,1.09-6.21,1.41c-2.65,0.39-4.64,2.61-4.64,5.29l0,0
				c0,1.15,0.37,2.26,1.05,3.19l40.73,55.04c1.93,2.6,4.97,4.14,8.21,4.14h20.05L579.01,144.19z"/>
			
				<linearGradient id="SVGID_00000048470846837365039080000002612592097521223871_" gradientUnits="userSpaceOnUse" x1="-42.2177" y1="209.7575" x2="1112.7854" y2="209.7575" gradientTransform="matrix(1 0 0 -1 0 352)">
				<stop  offset="0" style="stop-color:#CC9C34"/>
				<stop  offset="0.16" style="stop-color:#C8912F"/>
				<stop  offset="0.4392" style="stop-color:#E8E093"/>
				<stop  offset="0.54" style="stop-color:#EBE9B5"/>
				<stop  offset="0.69" style="stop-color:#C9AD5E"/>
				<stop  offset="0.85" style="stop-color:#C5A253"/>
				<stop  offset="1" style="stop-color:#D4BD75"/>
			</linearGradient>
			<path style="fill:url(#SVGID_00000048470846837365039080000002612592097521223871_);" d="M209.97,77.75h11.72
				c5.51,0,9.97,4.46,9.97,9.97v119.02H219.6c-5.32,0-9.63-4.31-9.63-9.63V77.75z"/>
			
				<linearGradient id="SVGID_00000010303812266460205990000011247904381246321843_" gradientUnits="userSpaceOnUse" x1="-42.2177" y1="209.7675" x2="1112.7854" y2="209.7675" gradientTransform="matrix(1 0 0 -1 0 352)">
				<stop  offset="0" style="stop-color:#CC9C34"/>
				<stop  offset="0.16" style="stop-color:#C8912F"/>
				<stop  offset="0.4392" style="stop-color:#E8E093"/>
				<stop  offset="0.54" style="stop-color:#EBE9B5"/>
				<stop  offset="0.69" style="stop-color:#C9AD5E"/>
				<stop  offset="0.85" style="stop-color:#C5A253"/>
				<stop  offset="1" style="stop-color:#D4BD75"/>
			</linearGradient>
			<path style="fill:url(#SVGID_00000010303812266460205990000011247904381246321843_);" d="M257.45,134.58l69.83-56.84h-19.05
				c-3.37,0-6.65,1.12-9.33,3.18l-55.14,42.53c-1.99,1.53-3.15,3.9-3.15,6.41v16.01c0,2.27,0.96,4.44,2.64,5.98l55.73,50.89
				c2.81,2.57,6.49,3.99,10.3,3.99h18.01l-70.04-66.87C255.71,138.4,255.8,135.92,257.45,134.58z"/>
			<g>
				
					<linearGradient id="SVGID_00000021831434676177881580000012524094860308495761_" gradientUnits="userSpaceOnUse" x1="-42.2177" y1="209.7725" x2="1112.7854" y2="209.7725" gradientTransform="matrix(1 0 0 -1 0 352)">
					<stop  offset="0" style="stop-color:#CC9C34"/>
					<stop  offset="0.16" style="stop-color:#C8912F"/>
					<stop  offset="0.4392" style="stop-color:#E8E093"/>
					<stop  offset="0.54" style="stop-color:#EBE9B5"/>
					<stop  offset="0.69" style="stop-color:#C9AD5E"/>
					<stop  offset="0.85" style="stop-color:#C5A253"/>
					<stop  offset="1" style="stop-color:#D4BD75"/>
				</linearGradient>
				<path style="fill:url(#SVGID_00000021831434676177881580000012524094860308495761_);" d="M987.13,134.01v8.89
					c0,4.18-3.41,7.56-7.61,7.56h-90.78v-9.15c0-4.03,3.29-7.31,7.35-7.31h91.04V134.01z"/>
				
					<linearGradient id="SVGID_00000057828865047189635390000012042579340727873976_" gradientUnits="userSpaceOnUse" x1="-42.2177" y1="266.0325" x2="1112.7854" y2="266.0325" gradientTransform="matrix(1 0 0 -1 0 352)">
					<stop  offset="0" style="stop-color:#CC9C34"/>
					<stop  offset="0.16" style="stop-color:#C8912F"/>
					<stop  offset="0.4392" style="stop-color:#E8E093"/>
					<stop  offset="0.54" style="stop-color:#EBE9B5"/>
					<stop  offset="0.69" style="stop-color:#C9AD5E"/>
					<stop  offset="0.85" style="stop-color:#C5A253"/>
					<stop  offset="1" style="stop-color:#D4BD75"/>
				</linearGradient>
				<path style="fill:url(#SVGID_00000057828865047189635390000012042579340727873976_);" d="M987.13,77.75v8.89
					c0,4.18-3.41,7.56-7.61,7.56h-90.78v-9.15c0-4.03,3.29-7.31,7.35-7.31L987.13,77.75L987.13,77.75z"/>
				
					<linearGradient id="SVGID_00000054233959973510692790000009167461673589986949_" gradientUnits="userSpaceOnUse" x1="-42.2177" y1="153.5025" x2="1112.7854" y2="153.5025" gradientTransform="matrix(1 0 0 -1 0 352)">
					<stop  offset="0" style="stop-color:#CC9C34"/>
					<stop  offset="0.16" style="stop-color:#C8912F"/>
					<stop  offset="0.4392" style="stop-color:#E8E093"/>
					<stop  offset="0.54" style="stop-color:#EBE9B5"/>
					<stop  offset="0.69" style="stop-color:#C9AD5E"/>
					<stop  offset="0.85" style="stop-color:#C5A253"/>
					<stop  offset="1" style="stop-color:#D4BD75"/>
				</linearGradient>
				<path style="fill:url(#SVGID_00000054233959973510692790000009167461673589986949_);" d="M987.13,190.28v8.89
					c0,4.18-3.41,7.56-7.61,7.56h-90.78v-9.15c0-4.03,3.29-7.31,7.35-7.31h91.04V190.28z"/>
			</g>
			
				<linearGradient id="SVGID_00000105407804000773040730000000515020929173279636_" gradientUnits="userSpaceOnUse" x1="-42.2177" y1="209.2725" x2="1112.7854" y2="209.2725" gradientTransform="matrix(1 0 0 -1 0 352)">
				<stop  offset="0" style="stop-color:#CC9C34"/>
				<stop  offset="0.16" style="stop-color:#C8912F"/>
				<stop  offset="0.4392" style="stop-color:#E8E093"/>
				<stop  offset="0.54" style="stop-color:#EBE9B5"/>
				<stop  offset="0.69" style="stop-color:#C9AD5E"/>
				<stop  offset="0.85" style="stop-color:#C5A253"/>
				<stop  offset="1" style="stop-color:#D4BD75"/>
			</linearGradient>
			<path style="fill:url(#SVGID_00000105407804000773040730000000515020929173279636_);" d="M127.09,139.27l9.35,3.46l-9.35,3.46
				c-9.32,3.45-16.67,10.8-20.12,20.12l-3.46,9.35l-3.47-9.35c-3.45-9.32-10.8-16.67-20.12-20.12l-9.35-3.46l9.35-3.46
				c9.32-3.45,16.67-10.8,20.12-20.12l3.46-9.35l3.46,9.35C110.41,128.47,117.76,135.82,127.09,139.27z"/>
		</g>
	</g>
	<g>
		<path class="st12" d="M161.69,247.54l5.43,1.43c-0.09,0.39-0.62,0.62-1.6,0.71c2.65,3.78,7.64,6.99,14.97,9.64l-0.03,0.48
			c-0.72,0.18-1.35,0.57-1.87,1.17c-0.52,0.6-0.85,1.25-0.99,1.95c-2.87-1.54-5.43-3.41-7.67-5.6s-3.92-4.62-5.02-7.26
			c-1.65,2.67-4.1,5.32-7.35,7.96s-6.57,4.72-9.96,6.26l-0.24-0.44c3.01-1.9,5.95-4.46,8.81-7.69
			C159.03,252.91,160.87,250.05,161.69,247.54z M173.6,277.67l2.07-2.61c1.58,1.2,2.85,2.23,3.8,3.09
			c-0.09,0.36-0.41,0.54-0.95,0.54h-29.56l-0.31-1.02h13.27v-7.5h-8.82l-0.3-0.95h9.13v-6.62h-8.04l-0.24-1.02h15.37l1.87-2.24
			c1.43,1.04,2.56,1.95,3.39,2.72c-0.07,0.36-0.36,0.54-0.88,0.54h-8.01v6.62h5.09l1.97-2.44c1.47,1.11,2.67,2.06,3.6,2.85
			c-0.09,0.36-0.4,0.54-0.92,0.54h-9.74v7.5L173.6,277.67L173.6,277.67z"/>
		<path class="st12" d="M218.93,267.7l0.17,0.41c-3.24,2.67-6.57,5.09-10.01,7.26c-0.09,0.52-0.33,0.87-0.71,1.05l-1.73-3.7
			c1.43-0.45,2.91-1,4.45-1.63v-9.16h-3.53l-0.27-1.02h3.8v-8.52h-3.7l-0.27-1.02h7.3l1.76-2.41c1.31,1.13,2.35,2.09,3.12,2.89
			c-0.09,0.36-0.4,0.54-0.92,0.54h-4.21v8.52h0.68l1.56-2.31c1.15,1.09,2.06,2,2.72,2.75c-0.11,0.38-0.41,0.58-0.88,0.58h-4.07v7.87
			C215.9,269.1,217.48,268.4,218.93,267.7z M225.28,267.46l0.24,0.37c-2.63,2.92-4.97,5.39-7.03,7.4c0,0.5-0.18,0.87-0.54,1.12
			l-2.58-3.56C217.15,271.95,220.46,270.17,225.28,267.46z M235.02,257.65l3.77,2.51c-0.23,0.29-0.62,0.4-1.19,0.31
			c-1.11,0.97-3.02,2.48-5.74,4.51c1.67,3.44,4.31,6.17,7.91,8.18l-0.1,0.41c-0.68,0.14-1.27,0.48-1.78,1.03
			c-0.51,0.56-0.88,1.25-1.1,2.09c-2.17-2.01-3.86-4.37-5.06-7.06s-2.07-6.31-2.61-10.86v17.11c0,1.31-0.28,2.27-0.85,2.89
			c-0.57,0.61-1.78,0.99-3.63,1.15c-0.11-1.09-0.39-1.8-0.82-2.14c-0.54-0.54-1.52-0.92-2.92-1.12v-0.54c2.28,0.2,3.69,0.3,4.21,0.3
			s0.78-0.24,0.78-0.71v-19.86h-8.59l-0.27-0.98h8.86v-7.06l4.45,0.44c-0.07,0.52-0.48,0.84-1.22,0.95v5.67h4.89l1.12-1.39
			c-0.39,0.05-0.8-0.06-1.26-0.3c-0.2-0.66-0.61-1.36-1.21-2.11s-1.23-1.35-1.88-1.8l0.3-0.27c0.91,0.05,1.71,0.17,2.43,0.37
			c0.71,0.2,1.26,0.44,1.63,0.71c0.37,0.27,0.68,0.57,0.92,0.88c0.24,0.32,0.34,0.63,0.32,0.93c-0.02,0.31-0.08,0.58-0.17,0.83
			c0.84,0.66,1.87,1.52,3.09,2.58c-0.09,0.36-0.41,0.54-0.95,0.54h-9.13c0.45,3.17,1.19,5.88,2.21,8.15
			C232.64,262.19,233.84,260.07,235.02,257.65z M218.62,258.4l0.37-0.2c2.69,1.22,4.31,2.7,4.85,4.45c0.36,1.11,0.2,1.97-0.47,2.58
			c-0.63,0.59-1.35,0.58-2.14-0.03c-0.11-0.07-0.21-0.15-0.3-0.24C220.84,262.93,220.07,260.75,218.62,258.4z"/>
		<path class="st12" d="M277.58,255.31l0.1,0.41c-2.67,1.56-5.69,3.15-9.06,4.75c-0.14,0.43-0.42,0.7-0.85,0.81l-1.8-3.7
			C267.99,257.27,271.86,256.51,277.58,255.31z M266.99,279.91l-0.14-0.51c2.08-0.57,4.19-1.37,6.33-2.41s3.8-2.06,4.97-3.05
			l3.77,2.58c-0.27,0.39-0.88,0.44-1.83,0.17c-1.56,0.77-3.54,1.45-5.92,2.04C271.79,279.32,269.39,279.71,266.99,279.91z
			 M268.18,248.62l0.27-0.27c3.26,0.2,5.37,1.06,6.35,2.58c0.59,0.88,0.62,1.68,0.1,2.38c-0.5,0.7-1.21,0.86-2.14,0.48
			c-0.09-0.02-0.18-0.06-0.27-0.1c-0.32-0.84-0.89-1.72-1.71-2.66C269.95,250.08,269.09,249.28,268.18,248.62z M289.6,274.65h-0.54
			v-1.36h-13.64v1.02c0,0.09-0.14,0.22-0.41,0.39c-0.27,0.17-0.63,0.32-1.07,0.46c-0.44,0.13-0.88,0.2-1.31,0.2h-0.54v-16.12
			l3.53,1.42h13.1l1.6-1.66l3.33,2.48c-0.27,0.32-0.7,0.54-1.29,0.68v11.64c-0.02,0.14-0.36,0.31-1.02,0.53
			C290.67,274.55,290.1,274.65,289.6,274.65z M292.59,252.19h-5.26c0.57,1.59,1.67,2.86,3.33,3.84c1.65,0.97,4.12,1.7,7.4,2.17
			l-0.03,0.44c-0.77,0.14-1.35,0.39-1.73,0.76c-0.39,0.37-0.62,0.96-0.71,1.75c-2.69-0.66-4.71-1.68-6.04-3.07
			c-1.33-1.39-2.24-3.09-2.71-5.11c-0.7,2.01-1.97,3.57-3.8,4.67s-4.33,1.9-7.5,2.39l-0.14-0.48c2.58-0.77,4.51-1.72,5.79-2.85
			s2.14-2.64,2.6-4.51h-2.95c-1.45,1.36-3.13,2.41-5.06,3.16l-0.31-0.34c1.02-0.81,1.95-1.89,2.8-3.24
			c0.85-1.35,1.49-2.72,1.92-4.12l4.51,1.05c-0.11,0.36-0.53,0.53-1.26,0.51c-0.52,0.77-1.04,1.43-1.56,1.97h10.76l1.73-1.7
			l2.99,2.88c-0.23,0.18-0.67,0.29-1.32,0.34c-1.24,1.06-2.77,2-4.58,2.82l-0.41-0.24C291.66,254.19,292.18,253.16,292.59,252.19z
			 M289.06,261.66h-13.64v2.88h13.64V261.66z M289.06,268.37v-2.85h-13.64v2.85H289.06z M275.41,272.31h13.65v-2.92h-13.64
			L275.41,272.31L275.41,272.31z M283.46,275.26l0.1-0.51c6.45,0.2,10.46,1.09,12.05,2.65c0.7,0.7,0.75,1.35,0.13,1.93
			c-0.57,0.54-1.31,0.7-2.24,0.48c-0.32-0.09-0.61-0.23-0.88-0.41C290.38,277.64,287.32,276.26,283.46,275.26z"/>
		<path class="st12" d="M330.96,260.98v2.95c0,1.06-0.03,2.03-0.09,2.9s-0.21,1.94-0.46,3.21s-0.58,2.42-1,3.44
			c-0.42,1.03-1.03,2.11-1.85,3.23c-0.81,1.12-1.78,2.11-2.88,2.97l-0.37-0.27c1.4-2.17,2.33-4.53,2.78-7.08s0.68-5.35,0.68-8.4
			v-5.36l3.77,1.39h19.14l2-2.44c1.56,1.13,2.79,2.1,3.7,2.92c-0.09,0.36-0.41,0.54-0.95,0.54L330.96,260.98L330.96,260.98z
			 M327.12,252.29l-0.31-1.02h12.01v-3.56l4.45,0.37c-0.07,0.5-0.45,0.8-1.16,0.92v2.27h7.26l1.97-2.41
			c1.52,1.11,2.75,2.07,3.7,2.89c-0.09,0.36-0.42,0.54-0.98,0.54h-6.04l2.21,1.39c-0.2,0.34-0.65,0.41-1.32,0.2
			c-1,0.59-2.09,1.12-3.29,1.6c1.7,0.86,2.57,1.79,2.61,2.78c0.05,0.63-0.26,1.03-0.92,1.19c-0.32,0.07-0.66,0.06-1.02-0.03
			c-0.88-0.7-2.37-1.57-4.45-2.61c-3.71,1.15-7.41,1.92-11.1,2.31l-0.2-0.54c3.17-0.84,6.08-1.81,8.72-2.92
			c-2.06-0.86-4.25-1.59-6.58-2.21l0.14-0.54c3.53,0.14,6.71,0.58,9.54,1.32c1.22-0.59,2.36-1.23,3.43-1.94L327.12,252.29
			L327.12,252.29z M350.71,278.01l2-2.51c1.54,1.13,2.77,2.12,3.7,2.95c-0.09,0.36-0.41,0.54-0.95,0.54h-25.22l-0.31-0.98h11.2
			v-5.26h-6.38l-0.27-1.02h6.65v-4.65h-5.16c-1.22,1.74-2.57,3.13-4.04,4.18l-0.44-0.31c1.58-2.4,2.74-5.44,3.46-9.13l4.18,1.26
			c-0.16,0.5-0.6,0.74-1.32,0.71c-0.27,0.61-0.68,1.37-1.22,2.27h4.55v-4.62l4.38,0.47c-0.07,0.48-0.43,0.77-1.09,0.88v3.26h3.83
			l1.94-2.27c1.36,1,2.5,1.91,3.43,2.75c-0.09,0.36-0.41,0.54-0.95,0.54h-8.25v4.65h3.26l1.83-2.21c1.36,1.02,2.48,1.91,3.36,2.68
			c-0.09,0.36-0.41,0.54-0.95,0.54h-7.5v5.26h6.28V278.01z"/>
		<path class="st12" d="M396,250.25l1.83-2.34c1.36,1.09,2.46,2.01,3.29,2.78c-0.09,0.36-0.41,0.54-0.95,0.54h-5.26v5.02h1.29
			l1.49-1.63l3.09,2.41c-0.23,0.3-0.68,0.52-1.36,0.68v20.6c-0.02,0.14-0.32,0.33-0.88,0.58c-0.57,0.25-1.09,0.37-1.56,0.37h-0.44
			v-2.61h-9.47v2.14c0,0.2-0.24,0.42-0.73,0.66c-0.49,0.24-1.02,0.36-1.61,0.36h-0.41V254.9l2.95,1.36h1.19v-5.02h-4.85l-0.27-0.98
			L396,250.25L396,250.25z M395.11,265.83h-0.92c-0.7,0-1.16-0.13-1.37-0.39c-0.22-0.26-0.32-0.72-0.32-1.37v-6.82h-1.66v1.43
			c0,4.01-1.14,6.92-3.43,8.76l-0.34-0.34v2.75h9.47v-4.07C396.04,265.81,395.57,265.83,395.11,265.83z M388.94,257.24h-1.87v9.5
			c1.24-1.85,1.87-4.56,1.87-8.11V257.24z M387.07,275.64h9.47v-4.79h-9.47V275.64z M392.5,256.26v-5.02h-1.66v5.02H392.5z
			 M396.54,257.24h-2v6.08c0,0.29,0.09,0.44,0.27,0.44h1.32c0.09,0,0.22-0.02,0.41-0.07V257.24z M414.77,270.21l0.1,5.26
			c0.77,0.27,1.15,0.71,1.15,1.32c0,0.7-0.48,1.21-1.44,1.53s-2.73,0.48-5.31,0.48h-3.56c-1.49,0-2.49-0.2-2.99-0.61
			s-0.75-1.21-0.75-2.41v-17.51l3.46,1.43h5.09v-8.48H402l-0.31-1.02h8.38l1.63-1.77l3.5,2.68c-0.29,0.36-0.84,0.63-1.63,0.82v11.1
			c-0.02,0.14-0.34,0.31-0.95,0.53c-0.61,0.21-1.15,0.32-1.63,0.32h-0.47v-3.19h-5.53v14.32c0,0.32,0.09,0.53,0.27,0.64
			s0.57,0.17,1.15,0.17h3.02c1.31,0,2.26-0.02,2.85-0.07c0.36-0.02,0.61-0.18,0.75-0.48c0.27-0.59,0.7-2.27,1.29-5.06L414.77,270.21
			L414.77,270.21z"/>
		<path class="st12" d="M454.66,262.03h1.49c0.05-0.84,0.08-1.7,0.1-2.58H442.5l-0.31-1.02h14.12c0-0.32,0-0.79,0.02-1.43
			c0.01-0.63,0.03-1.1,0.05-1.39h-7.98v0.98c0,0.09-0.13,0.22-0.39,0.37c-0.26,0.16-0.61,0.31-1.05,0.44
			c-0.44,0.14-0.87,0.2-1.27,0.2h-0.48v-9.33l3.5,1.46h18.57l1.53-1.73l3.46,2.55c-0.25,0.34-0.74,0.58-1.46,0.71v5.06
			c0,0.07-0.14,0.16-0.41,0.27c1.68,1.27,2.66,2.03,2.95,2.27c-0.07,0.39-0.37,0.58-0.92,0.58h-13.2l-0.51,2.58h6.14l1.6-1.76
			l3.39,2.61c-0.34,0.38-0.83,0.63-1.46,0.75v10.66c-0.02,0.07-0.17,0.18-0.44,0.34c-0.27,0.16-0.62,0.31-1.05,0.44
			s-0.81,0.2-1.15,0.2h-0.54v-1.39h-10.76v0.61c0,0.18-0.29,0.4-0.88,0.66c-0.59,0.26-1.19,0.39-1.8,0.39h-0.48V260.6L454.66,262.03
			z M468.44,277l1.97-2.51c1.45,1.13,2.63,2.12,3.53,2.95c-0.11,0.38-0.43,0.58-0.95,0.58h-25.18V279c0,0.18-0.29,0.39-0.87,0.61
			c-0.58,0.23-1.15,0.34-1.71,0.34h-0.58V262.2l4.24,0.41c-0.09,0.5-0.45,0.79-1.09,0.88V277H468.44z M448.41,250.73v3.97h4.35
			v-3.97H448.41z M465.21,263.01h-10.76v2.55h10.76V263.01z M454.45,266.58v2.65h10.76v-2.65H454.45z M454.45,272.85h10.76v-2.68
			h-10.76V272.85z M460.16,250.73h-4.48v3.97h4.48V250.73z M458.9,255.61l2.1,0.2c-0.07,0.57-0.49,0.91-1.26,1.02
			c-0.02,0.16-0.12,0.69-0.31,1.59h8.63l1.32-1.49c-0.5,0.11-0.93,0.17-1.29,0.17h-0.51v-1.49L458.9,255.61L458.9,255.61z
			 M467.59,250.73h-4.48v3.97h4.48V250.73z"/>
		<path class="st12" d="M510.25,246.42v34.76h-1.36v-34.76H510.25z"/>
		<path class="st12" d="M572.4,259.48l3.87,2.58c-0.18,0.36-0.61,0.45-1.29,0.27c-2.04,1.47-4.51,2.83-7.43,4.07
			c2.49,3.53,5.86,6.22,10.11,8.08l-0.1,0.37c-1.47,0.14-2.55,1.02-3.23,2.65c-3.01-2.01-5.43-4.57-7.26-7.65
			c-1.83-3.09-3.13-6.93-3.9-11.52h-0.47c-0.97,0.86-2.29,1.79-3.94,2.78c1.63,1.24,2.95,2.75,3.95,4.51
			c1.01,1.77,1.63,3.47,1.87,5.13c0.24,1.65,0.25,3.19,0.03,4.62s-0.65,2.51-1.31,3.26c-0.81,0.9-2.34,1.36-4.58,1.36
			c-0.02-0.91-0.27-1.6-0.75-2.07c-0.5-0.45-1.48-0.83-2.95-1.12v-0.47c1.9,0.18,3.45,0.27,4.65,0.27c0.48,0,0.8-0.12,0.98-0.37
			c0.72-1.04,1.02-2.78,0.88-5.23c-2.13,1.45-4.61,2.76-7.45,3.92c-2.84,1.17-5.74,2.05-8.71,2.67l-0.24-0.51
			c3.08-1.02,6.05-2.43,8.91-4.24s5.13-3.73,6.81-5.77c-0.07-0.25-0.23-0.71-0.47-1.39c-1.79,1.15-3.93,2.26-6.43,3.33
			c-2.5,1.06-4.96,1.91-7.38,2.54l-0.24-0.47c2.26-0.9,4.55-2.14,6.87-3.72c2.32-1.57,4.2-3.15,5.65-4.73
			c-0.39-0.59-0.65-0.97-0.78-1.15c-3.17,1.72-6.89,3.11-11.17,4.17l-0.24-0.47c4.25-1.67,8.02-3.95,11.3-6.82h-7.2l-0.31-1.02
			h17.14l1.93-2.38c0.48,0.39,1,0.8,1.56,1.26c0.56-1.09,1.02-2.08,1.36-2.99h-21.72c0.07,2.24-0.6,3.82-2,4.75
			c-0.52,0.38-1.1,0.54-1.73,0.46c-0.63-0.08-1.06-0.39-1.29-0.93c-0.18-0.48-0.16-0.94,0.07-1.39c0.22-0.45,0.59-0.81,1.09-1.09
			c0.75-0.41,1.39-1.1,1.93-2.07c0.54-0.97,0.79-2,0.75-3.09h0.52c0.34,1.06,0.53,1.85,0.58,2.34h9.06v-4.48l4.68,0.37
			c-0.07,0.54-0.5,0.87-1.29,0.98v3.12h9.33l1.83-1.83l3.19,3.09c-0.18,0.18-0.62,0.31-1.32,0.37c-1.29,1.06-2.75,2.04-4.38,2.92
			c0.48,0.38,0.88,0.73,1.22,1.05c-0.07,0.36-0.38,0.54-0.95,0.54h-8.18c0.75,2.76,1.8,5.19,3.16,7.3
			C569.26,263.5,571.06,261.45,572.4,259.48z"/>
		<path class="st12" d="M611.46,279.34c0-1.09-0.2-1.83-0.61-2.24s-1.15-0.74-2.24-0.98l0.03-0.51c2.04,0.14,3.11,0.2,3.22,0.2
			c0.5,0,0.88-0.12,1.15-0.37c0.93-0.88,1.5-5.45,1.73-13.71h-3.16c-0.23,3.91-0.85,7.35-1.88,10.32c-1.03,2.96-2.75,5.58-5.18,7.84
			l-0.51-0.48c0.57-0.86,1.07-1.73,1.51-2.61s0.81-1.86,1.12-2.94c0.3-1.07,0.57-2,0.8-2.78c0.22-0.78,0.41-1.83,0.54-3.14
			c0.14-1.31,0.24-2.28,0.31-2.92c0.07-0.63,0.12-1.71,0.15-3.24c0.03-1.53,0.06-2.52,0.07-2.97c0.01-0.45,0.02-1.52,0.02-3.19h-3.8
			l-0.27-0.95h5.67v-6.72l4.45,0.41c-0.07,0.48-0.45,0.77-1.15,0.88v5.43h1.53l1.9-2.65c1.22,1.02,2.27,1.94,3.16,2.75
			c0.97-2.08,1.74-4.42,2.31-7.03l4.55,1.39c-0.16,0.45-0.6,0.68-1.32,0.68c-0.52,1.29-1.17,2.54-1.94,3.73h7.81l2-2.61
			c1.43,1.2,2.59,2.22,3.5,3.06c-0.09,0.36-0.41,0.54-0.95,0.54h-13.03c-1.45,1.99-3.16,3.64-5.13,4.96l-0.41-0.34
			c0.77-1,1.48-2.17,2.14-3.53h-7.7c-0.05,2.33-0.1,4.04-0.17,5.12h2.78l1.63-1.73l3.12,2.58c-0.32,0.32-0.79,0.52-1.43,0.61
			c-0.14,5.05-0.4,8.75-0.78,11.12c-0.39,2.36-0.97,3.93-1.77,4.7C614.26,278.94,613,279.38,611.46,279.34z M636.24,267.93h-7.16
			c0.97,4.07,3.78,6.94,8.42,8.59l-0.03,0.41c-0.84,0.2-1.47,0.53-1.9,0.98c-0.43,0.45-0.69,1.14-0.78,2.07
			c-3.46-2.04-5.57-6.03-6.31-11.98c-0.47,2.92-1.59,5.32-3.36,7.2c-1.76,1.88-4.7,3.45-8.79,4.72l-0.37-0.51
			c3.14-1.4,5.39-3.02,6.74-4.84s2.19-4.03,2.53-6.64h-6.65l-0.3-1.02h7.06c0.09-0.88,0.16-2.76,0.2-5.63h-1.77
			c-1.34,1.95-2.88,3.47-4.65,4.58l-0.44-0.31c1.92-2.58,3.27-5.94,4.04-10.08l4.34,1.32c-0.16,0.5-0.59,0.73-1.29,0.71
			c-0.27,0.66-0.73,1.57-1.36,2.75h6.75l1.87-2.38c1.4,1.13,2.52,2.08,3.36,2.85c-0.09,0.36-0.41,0.54-0.95,0.54h-6.48
			c-0.05,2.13-0.16,4.01-0.34,5.63h3.36l1.87-2.44c1.38,1.11,2.5,2.07,3.36,2.89C637.07,267.74,636.76,267.93,636.24,267.93z"/>
		<path class="st12" d="M690.22,257.48l1.93-2.61c1.45,1.18,2.6,2.2,3.46,3.06c-0.07,0.36-0.37,0.54-0.92,0.54h-5.67v11.23
			c0,0.18-0.3,0.4-0.9,0.66c-0.6,0.26-1.19,0.39-1.78,0.39h-0.61v-2.55h-5.57v2.21c0,0.18-0.29,0.4-0.88,0.66
			c-0.59,0.26-1.18,0.39-1.77,0.39h-0.64v-13h-5.36v17.45h16.94l2.14-2.82c1.61,1.29,2.89,2.39,3.84,3.29
			c-0.09,0.36-0.41,0.54-0.95,0.54h-21.96v1.83c0,0.2-0.3,0.45-0.9,0.75c-0.6,0.29-1.19,0.44-1.78,0.44h-0.64v-21.48h-5.02
			l-0.27-0.98h5.3v-8.96l4.62,0.51c-0.11,0.52-0.54,0.84-1.29,0.95v7.5h5.36v-9.64l4.58,0.44c-0.11,0.57-0.54,0.89-1.29,0.98v8.21
			h5.57v-9.27l4.58,0.44c-0.11,0.57-0.54,0.89-1.29,0.98v7.84h1.17V257.48z M685.73,267.19v-8.72h-5.57v8.72H685.73z"/>
		<path class="st12" d="M728.4,247.67l4.92,1.6c-0.16,0.45-0.61,0.67-1.36,0.64c-1.06,2.6-2.23,4.99-3.5,7.16l1.83,0.71
			c-0.16,0.34-0.51,0.55-1.05,0.64v20.53c-0.02,0.09-0.16,0.21-0.42,0.36c-0.26,0.15-0.61,0.29-1.04,0.42
			c-0.43,0.14-0.84,0.2-1.22,0.2h-0.64v-19.18c-1.56,2.01-3.21,3.72-4.96,5.13l-0.44-0.31c1.58-2.19,3.09-4.9,4.51-8.13
			C726.46,254.24,727.58,250.97,728.4,247.67z M753.01,270.68l-0.71,5.57c1.06,1.51,1.36,2.55,0.88,3.09
			c-0.39,0.48-0.92,0.68-1.61,0.61s-1.36-0.26-2-0.56c-0.64-0.31-1.28-0.7-1.92-1.17c-4.8-3.69-7.83-9.72-9.1-18.09l-7.6,0.88
			l-0.37-0.98l7.84-0.85c-0.45-3.3-0.68-6.98-0.68-11.03l4.72,0.58c-0.09,0.57-0.5,0.91-1.22,1.02c-0.05,3.42,0.1,6.43,0.44,9.03
			l5.6-0.61l1.8-2.82c1.7,0.97,3.07,1.82,4.11,2.55c-0.07,0.38-0.36,0.61-0.88,0.68l-10.52,1.19c1.09,7.31,3.67,12.37,7.74,15.17
			c0.29,0.25,0.52,0.36,0.68,0.32c0.16-0.03,0.32-0.2,0.48-0.49c0.75-1.29,1.4-2.67,1.97-4.14L753.01,270.68z M743.7,249.16
			l0.31-0.24c3.01,0.29,4.91,1.15,5.7,2.58c0.48,0.84,0.44,1.56-0.1,2.17c-0.57,0.63-1.31,0.72-2.24,0.27
			c-0.05-0.02-0.09-0.05-0.14-0.07C746.74,252.32,745.56,250.75,743.7,249.16z"/>
		<path class="st12" d="M785.37,247.67l4.89,1.46c-0.16,0.45-0.61,0.68-1.36,0.68c-0.93,2.58-2.01,5.05-3.26,7.4l1.56,0.61
			c-0.11,0.34-0.45,0.55-1.02,0.64v20.5c-0.05,0.16-0.35,0.36-0.92,0.59c-0.57,0.24-1.14,0.36-1.73,0.36h-0.61v-18.26
			c-1.22,1.74-2.43,3.19-3.63,4.34l-0.48-0.27c1.31-2.28,2.56-5.05,3.75-8.3C783.76,254.18,784.69,250.93,785.37,247.67z
			 M806.28,263.62h-0.48c2.44,0.39,3.98,1.22,4.62,2.51c0.41,0.77,0.35,1.4-0.17,1.9c-0.34,0.32-0.79,0.42-1.36,0.31
			c1.15,0.84,2.15,1.65,2.99,2.44c-0.09,0.36-0.4,0.54-0.92,0.54h-6.04v4.82c0,1.27-0.28,2.19-0.83,2.77s-1.73,0.94-3.51,1.1
			c-0.07-0.97-0.28-1.66-0.64-2.07c-0.48-0.47-1.37-0.8-2.68-0.98v-0.51c2.06,0.14,3.3,0.2,3.73,0.2c0.45,0,0.68-0.2,0.68-0.61
			v-4.72h-13.44l-0.27-1.02h13.71v-3.12l4.38,0.44c-0.07,0.45-0.44,0.74-1.12,0.85v1.84h1.83l1.73-2.14
			c-0.39-0.66-1.06-1.46-2.04-2.41c-3.85,0.75-9.12,1.63-15.82,2.65c-0.23,0.45-0.54,0.7-0.95,0.75l-1.26-3.53
			c1.74,0.02,4.92-0.06,9.54-0.24v-2.82h-4.41v0.88c0,0.18-0.31,0.39-0.93,0.63s-1.24,0.36-1.85,0.36h-0.44v-11.23l3.43,1.39h4.21
			v-2.24h-8.93l-0.31-1.02h9.23v-3.6l4.55,0.41c-0.09,0.57-0.52,0.89-1.29,0.98v2.21h4.72l2-2.44c1.47,1.13,2.66,2.1,3.56,2.92
			c-0.09,0.36-0.4,0.54-0.92,0.54h-9.37v2.24h4.14l1.59-1.7l3.33,2.48c-0.27,0.32-0.68,0.54-1.22,0.68v6.82
			c-0.04,0.09-0.4,0.24-1.07,0.44C807.32,263.52,806.75,263.62,806.28,263.62z M791.72,272.07l0.3-0.27
			c2.72,0.48,4.34,1.39,4.89,2.75c0.34,0.81,0.2,1.48-0.41,2c-0.66,0.57-1.39,0.57-2.21,0c-0.07-0.02-0.13-0.06-0.17-0.1
			C793.83,274.98,793.03,273.52,791.72,272.07z M797.96,255.55h-4.41v2.51h4.41V255.55z M793.55,261.55h4.41v-2.48h-4.41V261.55z
			 M805.7,255.55h-4.48v2.51h4.48V255.55z M805.7,261.55v-2.48h-4.48v2.48H805.7z M801.22,265.25l4.41-0.17
			c-0.57-0.48-1.18-0.92-1.83-1.32l0.27-0.31c0.77,0.05,1.31,0.1,1.63,0.17v-1.05h-4.48V265.25z"/>
		<path class="st12" d="M845.87,256.26l3.33,3.16c-0.23,0.23-0.71,0.37-1.46,0.44c-1.47,7.9-4.94,13.68-10.42,17.34l-0.37-0.34
			c4.25-4.91,6.72-10.79,7.4-17.65H838l-0.3-1.02h6.28L845.87,256.26z M865.76,255.58l3.87,2.75c-0.23,0.34-0.67,0.43-1.32,0.27
			c-2.4,1.58-4.63,2.84-6.69,3.77c2.19,5.3,5.06,9.04,8.59,11.23l-0.14,0.34c-1.31,0.25-2.23,1.18-2.75,2.78
			c-3.58-3.19-6.11-8.39-7.6-15.61c-0.14,0.2-0.39,0.31-0.75,0.31h-3.87v3.8h1.29l1.53-2.04c1.15,0.95,2.09,1.77,2.82,2.44
			c-0.07,0.39-0.37,0.58-0.92,0.58h-4.72v4.11h2.61l1.7-2.21c1.29,1.02,2.34,1.91,3.16,2.68c-0.09,0.36-0.4,0.54-0.92,0.54h-6.55
			v4.48c0,1.33-0.31,2.31-0.93,2.94c-0.62,0.62-1.95,1.02-3.99,1.21c-0.13-1.04-0.45-1.77-0.95-2.17c-0.75-0.54-1.93-0.93-3.56-1.15
			v-0.51c2.9,0.2,4.64,0.3,5.23,0.3c0.61,0,0.92-0.25,0.92-0.75v-4.34h-6.96l-0.27-1.02h7.23v-4.11h-4.55l-0.31-0.98h4.85v-3.8h-3.6
			l-0.27-0.98h3.87v-5.94l2.92,0.31c1.56-1.06,3.16-2.39,4.79-3.97h-16.83l-0.34-1.02h17.75l1.97-1.87l3.29,2.92
			c-0.2,0.2-0.69,0.34-1.46,0.41c-2.58,1.47-5.18,2.68-7.81,3.63l0.27,0.03c-0.11,0.52-0.53,0.83-1.26,0.92v4.58h0.65l1.49-1.9
			c0.93,0.77,1.73,1.48,2.41,2.14c-0.32-1.54-0.61-3.48-0.88-5.84l0.51-0.14c0.45,2.31,1.12,4.61,2,6.89
			C863.13,259.53,864.62,257.53,865.76,255.58z"/>
	</g>
</g>
</svg>
